<?xml version="1.0" encoding="UTF-8" standalone="no"?>
<!-- Created with Inkscape (http://www.inkscape.org/) -->

<svg
   xmlns:dc="http://purl.org/dc/elements/1.1/"
   xmlns:cc="http://creativecommons.org/ns#"
   xmlns:rdf="http://www.w3.org/1999/02/22-rdf-syntax-ns#"
   xmlns:svg="http://www.w3.org/2000/svg"
   xmlns="http://www.w3.org/2000/svg"
   xmlns:sodipodi="http://sodipodi.sourceforge.net/DTD/sodipodi-0.dtd"
   xmlns:inkscape="http://www.inkscape.org/namespaces/inkscape"
   width="19"
   height="48"
   id="svg5932"
   version="1.1"
   inkscape:version="0.48.4 r9939"
   sodipodi:docname="tree02.svg">
  <defs
     id="defs5934" />
  <sodipodi:namedview
     id="base"
     pagecolor="#ffffff"
     bordercolor="#666666"
     borderopacity="1.0"
     inkscape:pageopacity="0.0"
     inkscape:pageshadow="2"
     inkscape:zoom="7.9195959"
     inkscape:cx="14.68993"
     inkscape:cy="23.869054"
     inkscape:document-units="px"
     inkscape:current-layer="layer1"
     showgrid="false"
     inkscape:window-width="1076"
     inkscape:window-height="819"
     inkscape:window-x="665"
     inkscape:window-y="237"
     inkscape:window-maximized="0" />
  <metadata
     id="metadata5937">
    <rdf:RDF>
      <cc:Work
         rdf:about="">
        <dc:format>image/svg+xml</dc:format>
        <dc:type
           rdf:resource="http://purl.org/dc/dcmitype/StillImage" />
        <dc:title></dc:title>
      </cc:Work>
    </rdf:RDF>
  </metadata>
  <g
     inkscape:label="Layer 1"
     inkscape:groupmode="layer"
     id="layer1"
     transform="translate(0,-1004.3622)">
    <path
       enable-background="new    "
       d="m 5.5848612,1048.1122 c 1.067,-0.5 2.367,-0.75 3.9,-0.75 1.5329998,0 2.8329998,0.25 3.8999998,0.75 1.066,0.467 1.6,1.05 1.6,1.75 0,0.7 -0.533,1.3 -1.6,1.8 -1.067,0.467 -2.367,0.7 -3.8999998,0.7 -1.533,0 -2.833,-0.233 -3.9,-0.7 -1.066,-0.5 -1.6,-1.1 -1.6,-1.8 0,-0.7 0.533,-1.283 1.6,-1.75 z"
       id="path3995"
       inkscape:connector-curvature="0"
       style="opacity:0.05100002" />
    <path
       d="m 8.4348613,1036.8122 c 0.2999999,-0.3 0.649,-0.45 1.0499999,-0.45 0.4010001,0 0.7499998,0.15 1.0499998,0.45 0.3,0.3 0.45,0.649 0.45,1.05 v 11.05 l -0.45,0.7 -1.0499998,0.35 c -0.3999999,0 -0.75,-0.116 -1.0499999,-0.35 -0.3,-0.2 -0.4500001,-0.434 -0.4500001,-0.7 v -11.05 c 0,-0.4 0.15,-0.75 0.4500001,-1.05 z"
       id="path3997"
       inkscape:connector-curvature="0"
       style="fill:#bb8d5d" />
    <path
       d="m 0.03486125,1039.2622 8.55000005,-34.2 c 0.634,-0.934 1.268,-0.934 1.8999997,0 l 8.45,34 c 0.166,1.267 -0.167,2.149 -1,2.649 -5.634,2.967 -11.1669998,3.017 -16.6009997,0.15 -1.03300005,-0.599 -1.46600005,-1.466 -1.29900005,-2.599 z"
       id="path3999"
       inkscape:connector-curvature="0"
       style="fill:#4a8a7d" />
  </g>
</svg>
