<?xml version="1.0" encoding="UTF-8" standalone="no"?>
<!-- Created with Inkscape (http://www.inkscape.org/) -->

<svg
   xmlns:dc="http://purl.org/dc/elements/1.1/"
   xmlns:cc="http://creativecommons.org/ns#"
   xmlns:rdf="http://www.w3.org/1999/02/22-rdf-syntax-ns#"
   xmlns:svg="http://www.w3.org/2000/svg"
   xmlns="http://www.w3.org/2000/svg"
   xmlns:sodipodi="http://sodipodi.sourceforge.net/DTD/sodipodi-0.dtd"
   xmlns:inkscape="http://www.inkscape.org/namespaces/inkscape"
   width="14"
   height="36"
   id="svg5932"
   version="1.1"
   inkscape:version="0.48.4 r9939"
   sodipodi:docname="tree01.svg">
  <defs
     id="defs5934" />
  <sodipodi:namedview
     id="base"
     pagecolor="#ffffff"
     bordercolor="#666666"
     borderopacity="1.0"
     inkscape:pageopacity="0.0"
     inkscape:pageshadow="2"
     inkscape:zoom="7.9195959"
     inkscape:cx="14.68993"
     inkscape:cy="23.869054"
     inkscape:document-units="px"
     inkscape:current-layer="layer1"
     showgrid="false"
     inkscape:window-width="1076"
     inkscape:window-height="819"
     inkscape:window-x="665"
     inkscape:window-y="237"
     inkscape:window-maximized="0" />
  <metadata
     id="metadata5937">
    <rdf:RDF>
      <cc:Work
         rdf:about="">
        <dc:format>image/svg+xml</dc:format>
        <dc:type
           rdf:resource="http://purl.org/dc/dcmitype/StillImage" />
        <dc:title></dc:title>
      </cc:Work>
    </rdf:RDF>
  </metadata>
  <g
     inkscape:label="Layer 1"
     inkscape:groupmode="layer"
     id="layer1"
     transform="translate(0,-1016.3622)">
    <path
       enable-background="new    "
       d="m 2.9967945,1048.1122 c 1.067,-0.5 2.3669996,-0.75 3.8999996,-0.75 1.533,0 2.833,0.25 3.8999999,0.75 1.066,0.467 1.6,1.05 1.6,1.75 0,0.7 -0.533,1.3 -1.6,1.8 -1.0669999,0.467 -2.3669999,0.7 -3.8999999,0.7 -1.533,0 -2.8329996,-0.233 -3.8999996,-0.7 -1.066,-0.5 -1.6,-1.1 -1.6,-1.8 0,-0.7 0.533,-1.283 1.6,-1.75 z"
       id="path3977"
       inkscape:connector-curvature="0"
       style="opacity:0.05100002" />
    <path
       d="m 5.8467941,1036.8122 c 0.3,-0.3 0.649,-0.45 1.05,-0.45 0.401,0 0.75,0.15 1.05,0.45 0.3,0.3 0.45,0.65 0.45,1.05 v 11.05 l -0.45,0.7 -1.05,0.35 c -0.4,0 -0.75,-0.117 -1.05,-0.35 -0.3,-0.2 -0.45,-0.433 -0.45,-0.7 v -11.05 c 0,-0.4 0.15,-0.75 0.45,-1.05 z"
       id="path3979"
       inkscape:connector-curvature="0"
       style="fill:#bb8d5d" />
    <path
       d="m 13.096794,1042.6622 c -3.9999999,2.1 -7.9169999,2.15 -11.7499995,0.15 -0.73299995,-0.434 -1.04999995,-1.05 -0.94999995,-1.85 l 6.04999955,-24.05 c 0.434,-0.667 0.884,-0.667 1.351,0 l 5.9999999,23.9 c 0.099,0.9 -0.134,1.517 -0.701,1.85 z"
       id="path3981"
       inkscape:connector-curvature="0"
       style="fill:#74973e" />
  </g>
</svg>
